<svg id="Capa_1" enable-background="new 0 0 512 512" height="512" viewBox="0 0 512 512" width="512" xmlns="http://www.w3.org/2000/svg"><g><path d="m296.278 511.997h-228.994c-16.402 0-29.699-13.297-29.699-29.699v-23.867l1.823-1.681v-403.182h-1.823v-23.867c0-16.402 13.297-29.699 29.699-29.699h228.994c16.402 0 29.699 13.297 29.699 29.699v23.867l-2.568-.001v404.864h2.568v23.867c0 16.403-13.297 29.699-29.699 29.699z" fill="#7a6d79"/><path d="m325.973 29.704v452.592c0 16.408-13.296 29.704-29.694 29.704h-20.614c16.398 0 29.694-13.296 29.694-29.704v-452.592c0-16.408-13.295-29.704-29.693-29.704h20.614c16.397 0 29.693 13.296 29.693 29.704z" fill="#685e68"/><g><path d="m193.682 34.286h-23.801c-4.142 0-7.5-3.358-7.5-7.5s3.358-7.5 7.5-7.5h23.801c4.142 0 7.5 3.358 7.5 7.5s-3.358 7.5-7.5 7.5z" fill="#5b515b"/></g><path d="m37.585 53.568h288.391v404.863h-288.391z" fill="#c8effe"/><path d="m305.359 53.568h20.617v404.863h-20.617z" fill="#99e6fc"/><g><g><path d="m371.279 245.615h11.738c4.637 0 8.396 3.759 8.396 8.396v78.747c0 4.637-3.759 8.396-8.396 8.396h-134.336c-3.502 0-6.341 2.839-6.341 6.341v23.066c0 8.181-9.601 12.589-15.805 7.256l-89.789-77.175c-4.442-3.818-4.442-10.695 0-14.513l89.789-77.178c6.204-5.332 15.805-.925 15.805 7.256v23.065c0 3.502 2.839 6.341 6.341 6.341h30.069 92.529z" fill="#fd6930"/><path d="m391.415 319.076c-20.259-.04-113.209.143-127.024.143-.515 0-1.03 0-1.544 0h-26.347c-5.228 0-9.467 4.238-9.467 9.466v7.302c0 4.32-5.069 6.648-8.346 3.833l-71.138-61.118c-.363-.314-.697-.648-1.002-1.002l-9.8 8.426c-4.439 3.82-4.439 10.704 0 14.514l89.784 77.176c6.206 5.332 15.81.923 15.81-7.257v-23.069c0-3.498 2.836-6.334 6.334-6.334h134.342c4.637 0 8.396-3.759 8.396-8.396z" fill="#fd5426"/></g><g><path d="m236.55 170.845h-11.738c-4.637 0-8.396 3.759-8.396 8.396v78.747c0 4.637 3.759 8.396 8.396 8.396h134.336c3.502 0 6.341 2.839 6.341 6.341v23.066c0 8.181 9.601 12.589 15.805 7.256l89.789-77.175c4.442-3.818 4.442-10.695 0-14.513l-89.789-77.178c-6.204-5.332-15.805-.925-15.805 7.256v23.065c0 3.502-2.839 6.341-6.341 6.341h-30.069-92.529z" fill="#6ed5a1"/><path d="m216.415 244.306c20.259-.04 113.209.143 127.024.143h1.544 26.347c5.228 0 9.467 4.238 9.467 9.467v7.302c0 4.32 5.069 6.648 8.346 3.833l71.138-61.118c.363-.314.697-.648 1.002-1.002l9.8 8.426c4.439 3.82 4.439 10.704 0 14.514l-89.784 77.176c-6.206 5.332-15.81.923-15.81-7.257v-23.067c0-3.498-2.836-6.334-6.334-6.334h-134.343c-4.637 0-8.396-3.759-8.396-8.396z" fill="#46cc8d"/></g></g></g></svg>