<svg id="Capa_1" enable-background="new 0 0 512 512" height="512" viewBox="0 0 512 512" width="512" xmlns="http://www.w3.org/2000/svg"><g><path d="m442.709 212.582-60-30c-2.08-1.04-4.38-1.582-6.709-1.582h-120v90h120c2.329 0 4.629-.542 6.709-1.582l60-30c5.083-2.549 8.291-7.734 8.291-13.418s-3.208-10.869-8.291-13.418z" fill="#2682ff"/><path d="m442.709 332.582-60-30c-2.08-1.04-4.38-1.582-6.709-1.582h-120v90h120c2.329 0 4.629-.542 6.709-1.582l60-30c5.083-2.549 8.291-7.734 8.291-13.418s-3.208-10.869-8.291-13.418z" fill="#2682ff"/><path d="m136 121c-2.329 0-4.629.542-6.709 1.582l-60 30c-5.083 2.549-8.291 7.734-8.291 13.418s3.208 10.869 8.291 13.418l60 30c2.08 1.04 4.38 1.582 6.709 1.582h120v-90z" fill="#3aaaff"/><path d="m136 241c-2.329 0-4.629.542-6.709 1.582l-60 30c-5.083 2.549-8.291 7.734-8.291 13.418s3.208 10.869 8.291 13.418l60 30c2.08 1.04 4.38 1.582 6.709 1.582h120v-90z" fill="#3aaaff"/><path d="m256 60c-8.291 0-15 6.709-15 15v422c0 8.291 6.709 15 15 15s15-6.709 15-15v-422c0-8.291-6.709-15-15-15z" fill="#676e74"/><path d="m271 497v-422c0-8.291-6.709-15-15-15v452c8.291 0 15-6.709 15-15z" fill="#474f54"/><circle cx="256" cy="45" fill="#dfe7f4" r="45"/><path d="m301 45c0-24.814-20.186-45-45-45v90c24.814 0 45-20.186 45-45z" fill="#c7cfe1"/><path d="m286 482h-30-30c-8.291 0-15 6.709-15 15s6.709 15 15 15h30 30c8.291 0 15-6.709 15-15s-6.709-15-15-15z" fill="#97de3d"/><path d="m301 497c0-8.291-6.709-15-15-15h-30v30h30c8.291 0 15-6.709 15-15z" fill="#59c36a"/></g></svg>