<svg id="Capa_1" enable-background="new 0 0 512.013 512.013" height="512" viewBox="0 0 512.013 512.013" width="512" xmlns="http://www.w3.org/2000/svg"><g><path d="m12.92 7.506h101.231v497h-101.231z" fill="#26457d"/><path d="m94.735 7.506h19.415v497h-19.415z" fill="#21386b"/><g><g><path d="m114.151 174.457h283.711v27.344h-283.711z" fill="#f9f6f6"/><g fill="#dddaec"><path d="m114.151 174.457h18.372v27.344h-18.372z"/><path d="m376.148 174.457h21.714v27.344h-21.714z"/></g></g><g><path d="m114.151 396.49h283.711v27.344h-283.711z" fill="#f9f6f6"/><g fill="#dddaec"><path d="m114.151 396.49h18.372v27.344h-18.372z"/><path d="m376.148 396.49h21.714v27.344h-21.714z"/></g></g></g><g><path d="m335.073 174.457h-158.134v-116.864c0-4.888 3.962-8.85 8.85-8.85h140.433c4.888 0 8.85 3.962 8.85 8.85v116.864z" fill="#ffd064"/><path d="m326.223 48.743h-19.198c4.888 0 8.85 3.963 8.85 8.85v116.864h19.198v-116.864c0-4.887-3.962-8.85-8.85-8.85z" fill="#ffc250"/><path d="m268.906 93.62h-25.8c-2.031 0-3.677-1.646-3.677-3.677v-41.2h33.153v41.2c.001 2.03-1.645 3.677-3.676 3.677z" fill="#26457d"/><path d="m260.27 48.743v41.2c0 2.031-1.646 3.677-3.677 3.677h12.313c2.031 0 3.677-1.646 3.677-3.677v-41.2z" fill="#21386b"/><path d="m335.073 396.49h-158.134v-116.863c0-4.888 3.962-8.85 8.85-8.85h140.433c4.888 0 8.85 3.962 8.85 8.85v116.863z" fill="#ffd064"/><path d="m326.223 270.776h-19.198c4.888 0 8.85 3.963 8.85 8.85v116.864h19.198v-116.863c0-4.888-3.962-8.851-8.85-8.851z" fill="#ffc250"/><path d="m268.906 315.653h-25.8c-2.031 0-3.677-1.646-3.677-3.677v-41.2h33.153v41.2c.001 2.031-1.645 3.677-3.676 3.677z" fill="#26457d"/><path d="m260.27 270.776v41.2c0 2.031-1.646 3.677-3.677 3.677h12.313c2.031 0 3.677-1.646 3.677-3.677v-41.2z" fill="#21386b"/></g><g><path d="m397.862 7.506h101.231v497h-101.231z" fill="#26457d"/><path d="m479.678 7.506h19.415v497h-19.415z" fill="#21386b"/></g><g><path d="m296.731 114.428c-2.97-2.89-7.718-2.822-10.606.144-2.889 2.969-2.824 7.717.144 10.606l9.296 9.047-9.296 9.047c-2.968 2.89-3.032 7.638-.144 10.606 2.891 2.968 7.637 3.032 10.606.144l14.817-14.422c1.45-1.412 2.269-3.351 2.269-5.375s-.818-3.963-2.269-5.375z"/><path d="m238.721 132.826h-32.627c-4.143 0-7.5 3.357-7.5 7.5s3.357 7.5 7.5 7.5h32.627c4.143 0 7.5-3.357 7.5-7.5s-3.358-7.5-7.5-7.5z"/><path d="m296.731 336.461c-2.97-2.891-7.718-2.823-10.606.144-2.889 2.969-2.824 7.717.144 10.606l9.296 9.047-9.296 9.047c-2.968 2.89-3.032 7.638-.144 10.606 2.891 2.968 7.637 3.032 10.606.144l14.817-14.422c1.45-1.412 2.269-3.351 2.269-5.375s-.818-3.963-2.269-5.375z"/><path d="m238.721 354.859h-32.627c-4.143 0-7.5 3.357-7.5 7.5s3.357 7.5 7.5 7.5h32.627c4.143 0 7.5-3.357 7.5-7.5s-3.358-7.5-7.5-7.5z"/><path d="m511.78 226.662c-.926-4.007-4.927-5.407-5.187-5.594v-95.803l1.005-.496c2.063-1.017 3.664-2.857 4.181-5.098.806-3.489-.914-6.938-3.986-8.452l-1.201-.592v-95.802l.944-.465c3.586-1.768 5.405-6.018 3.875-9.712-1.588-3.835-5.657-4.646-9.662-4.641-.895.001-1.708 0-2.657 0h-101.23c-4.142 0-7.5 3.358-7.5 7.5v47.903l-1.005.496c-2.063 1.017-3.664 2.857-4.181 5.098-.806 3.489.914 6.938 3.986 8.452l1.201.592v35.117c0 4.107 3.165 7.688 7.27 7.811 4.247.127 7.73-3.278 7.73-7.497v-28.037l82.155 40.505-82.155 40.507v-22.676c0-4.107-3.165-7.688-7.27-7.811-4.247-.127-7.73 3.278-7.73 7.497v28.616c0 1.044-.565 2.008-1.481 2.509-.006.003-.012.006-.017.01-.425.234-.901.359-1.386.359h-44.904v-109.364c0-9.03-7.32-16.351-16.351-16.351h-140.434c-9.03 0-16.351 7.32-16.351 16.351v109.363h-47.789v-41.691c.273-.227 5.385-1.796 5.385-7.319 0-5.521-5.115-7.095-5.385-7.319v-95.803l.924-.456c3.588-1.769 5.448-6.317 3.791-9.959-1.45-3.188-4.709-4.404-8.124-4.404 0 0-3.617 0-4.092 0h-101.229c-4.142 0-7.5 3.358-7.5 7.5v47.903l-1.005.496c-2.063 1.017-3.664 2.857-4.181 5.098-.806 3.489.914 6.938 3.986 8.452l1.201.592v95.804l-1.008.497c-2.064 1.018-3.664 2.86-4.18 5.103-.802 3.489.918 6.933 3.987 8.446l1.201.592v44.676c0 4.107 3.165 7.688 7.27 7.811 4.247.127 7.73-3.278 7.73-7.497v-37.594l82.155 40.505-82.156 40.503v-13.115c0-4.107-3.165-7.688-7.27-7.811-4.247-.127-7.73 3.278-7.73 7.497v20.825l-1.064.524c-1.995.984-3.549 2.749-4.084 4.908-1.686 6.795 5.013 9.08 5.148 9.205v95.805l-1.064.524c-1.995.984-3.549 2.749-4.084 4.908-1.686 6.795 5.013 9.08 5.148 9.206v95.817l-.953.47c-3.565 1.758-5.383 5.971-3.889 9.654 1.201 2.962 4.022 4.697 6.962 4.697 5.117 0 3.963-.002 5.379-.002h101.23c4.142 0 7.5-3.358 7.5-7.5v-47.908l1.004-.495c2.063-1.017 3.664-2.857 4.182-5.098.807-3.49-.914-6.939-3.984-8.453l-1.202-.593v-10.625h268.712v65.853l-.953.47c-3.565 1.758-5.383 5.971-3.889 9.654 1.201 2.962 4.022 4.697 6.962 4.697.113 0 107.331-.002 106.609-.002 4.142 0 7.5-3.358 7.5-7.5v-47.908l1.004-.495c2.063-1.017 3.664-2.857 4.182-5.098.807-3.49-.914-6.939-3.984-8.453l-1.202-.593v-95.811l1.005-.496c2.063-1.017 3.664-2.857 4.181-5.098.806-3.489-.914-6.938-3.986-8.452l-1.201-.592v-95.804c.143-.128 6.733-2.37 5.191-9.043zm-106.418-211.656h66.945l-66.945 33.007zm4.076 47.721 82.155-40.507v81.012zm82.155 69.935v81.012l-82.155-40.505zm-156.749 201.05c-4.105.123-7.27 3.704-7.27 7.811v47.467h-143.134v-109.363c0-.746.605-1.351 1.351-1.351h46.14v33.7c0 6.173 5.004 11.177 11.177 11.177h25.8c6.173 0 11.177-5.004 11.177-11.177v-33.7h46.14c.746 0 1.351.605 1.351 1.351v30.354c0 4.107 3.165 7.688 7.27 7.811 4.247.127 7.73-3.278 7.73-7.497v-30.668c0-9.03-7.32-16.351-16.351-16.351h-140.435c-9.03 0-16.351 7.32-16.351 16.351v109.363h-47.789v-42.842c.273-.227 5.385-1.796 5.385-7.319 0-5.521-5.115-7.095-5.385-7.319v-95.804c.273-.227 5.385-1.796 5.385-7.319 0-5.521-5.115-7.095-5.385-7.319v-11.768h268.712v66.988c-.273.227-5.385 1.796-5.385 7.319 0 5.521 5.115 7.095 5.385 7.319v92.979c0 1.687-.841 3.267-2.246 4.201-.015.01-.03.02-.045.03-.832.556-1.808.853-2.809.853h-42.69v-47.781c.001-4.218-3.481-7.623-7.728-7.496zm-87.914-55.436h18.153v29.877h-18.153zm158.432 20.046 82.155 40.507-82.155 40.506zm0-110.439 82.155 40.505-82.155 40.505zm-140.279-131.64v29.877h-18.153v-29.877zm-80.643 1.351c0-.745.605-1.351 1.351-1.351h46.14v33.7c0 6.163 5.014 11.177 11.177 11.177h25.8c6.163 0 11.177-5.014 11.177-11.177v-33.7h46.14c.745 0 1.351.605 1.351 1.351v109.363h-143.136zm205.922 124.363v12.344h-268.711v-12.344zm-283.711-78.724-82.156-40.506 82.155-40.507v81.013zm-86.231-88.227h66.945l-66.945 33.007zm0 62.436 82.155 40.505-82.155 40.507zm4.075 95.727 82.155-40.507v81.012zm82.156 69.933v81.012l-82.155-40.507zm-86.231 55.22 82.155 40.507-82.155 40.506zm0 110.444 82.157 40.512-82.157 40.512zm86.231 88.24h-66.947l66.947-33.012zm-82.157-102.956 82.156-40.506v81.019zm97.157 22.284v-12.344h268.712v12.344zm283.711-7.568 82.157 40.512-82.157 40.512zm86.231 88.24h-66.947l66.947-33.012zm0-62.444-82.156-40.512 82.156-40.506zm0-110.448-82.155-40.507 82.155-40.505z"/></g></g></svg>