<?xml version="1.0"?>
<svg xmlns="http://www.w3.org/2000/svg" height="512px" viewBox="0 0 32 32" width="512px" class=""><g><g id="Graph"><path d="m24 17h-9v-9a1 1 0 0 0 -1-1 11 11 0 1 0 11 11 1 1 0 0 0 -1-1z" fill="#e6ecff" data-original="#E6ECFF" class="active-path" style="fill:#FFCE00" data-old_color="#e6ecff"/><path d="m18 3a1 1 0 0 0 -1 1v10a1 1 0 0 0 1 1h10a1 1 0 0 0 1-1 11.0125 11.0125 0 0 0 -11-11z" fill="#4294ff" data-original="#4294FF" class="" style="fill:#FB5252" data-old_color="#4294ff"/><path d="m25 18a11.0055 11.0055 0 0 1 -21.18 4.19 73.4587 73.4587 0 0 0 11.18-5.23v.04h9a1.0029 1.0029 0 0 1 1 1z" fill="#b7c6e2" data-original="#B7C6E2" class=""/><path d="m29 14a1.0029 1.0029 0 0 1 -1 1h-9.78a68.6871 68.6871 0 0 0 9.02-6.96 10.862 10.862 0 0 1 1.76 5.96z" fill="#2965ed" data-original="#2965ED" class="" style="fill:#2965ED"/></g></g> </svg>
