<svg id="Capa_1" enable-background="new 0 0 512 512" height="512" viewBox="0 0 512 512" width="512" xmlns="http://www.w3.org/2000/svg"><path d="m326 40h-260c-11.05 0-20 8.95-20 20v422c0 11.05 8.95 20 20 20h260c11.05 0 20-8.95 20-20v-422c0-11.05-8.95-20-20-20z" fill="#ecf2f3"/><path d="m406 196h60v180h-60z" fill="#ff5a58"/><path d="m466 136v60h-60v-60c0-16.56 13.44-30 30-30 16.57 0 30 13.43 30 30z" fill="#6d92ac"/><path d="m466 376-30 90-30-90z" fill="#ffddcf"/><path d="m256 30v10c0 16.57-13.43 30-30 30h-60c-16.57 0-30-13.43-30-30v-10c0-11.05 8.95-20 20-20h80c11.05 0 20 8.95 20 20z" fill="#ffee80"/><path d="m106 176h120c5.522 0 10-4.478 10-10s-4.478-10-10-10h-120c-5.522 0-10 4.478-10 10s4.478 10 10 10z"/><path d="m106 236h180c5.522 0 10-4.478 10-10s-4.478-10-10-10h-180c-5.522 0-10 4.478-10 10s4.478 10 10 10z"/><path d="m106 296h180c5.522 0 10-4.478 10-10s-4.478-10-10-10h-180c-5.522 0-10 4.478-10 10s4.478 10 10 10z"/><path d="m106 356h180c5.522 0 10-4.478 10-10s-4.478-10-10-10h-180c-5.522 0-10 4.478-10 10s4.478 10 10 10z"/><path d="m296 406c0-5.522-4.478-10-10-10h-90c-5.522 0-10 4.478-10 10s4.478 10 10 10h90c5.523 0 10-4.478 10-10z"/><path d="m396 136v240c0 1.049.199 2.208.513 3.162l30 90c1.361 4.084 5.183 6.838 9.487 6.838s8.126-2.754 9.487-6.838l30-90c.305-.93.513-2.095.513-3.162v-240c0-22.056-17.944-40-40-40-22.098 0-40 17.898-40 40zm60 230h-40v-160h40zm-20 68.377-16.126-48.377h32.251zm20-298.377v50h-40v-50c0-11.046 8.954-20 20-20 11.028 0 20 8.972 20 20z"/><circle cx="196" cy="502" r="10"/><path d="m36 482c0 16.542 13.458 30 30 30h85c5.522 0 10-4.478 10-10s-4.478-10-10-10h-85c-5.514 0-10-4.486-10-10v-422c0-5.514 4.486-10 10-10h61.266c4.452 17.233 20.13 30 38.734 30h60c18.604 0 34.282-12.767 38.734-30h61.266c5.514 0 10 4.486 10 10v422c0 5.514-4.486 10-10 10h-85c-5.522 0-10 4.478-10 10s4.478 10 10 10h85c16.542 0 30-13.458 30-30v-422c0-16.542-13.458-30-30-30h-60c0-16.542-13.458-30-30-30h-80c-16.542 0-30 13.458-30 30h-60c-16.542 0-30 13.458-30 30zm110-452c0-5.514 4.486-10 10-10h80c5.514 0 10 4.486 10 10v10c0 11.028-8.972 20-20 20h-60c-11.028 0-20-8.972-20-20z"/></svg>