<?xml version="1.0"?>
<svg xmlns="http://www.w3.org/2000/svg" id="Business__x26__Finance_Flat" enable-background="new 0 0 128 128" height="512px" viewBox="0 0 128 128" width="512px" class=""><g><g><g><path d="m25.66 106.13v.69h-.01z" fill="#f7e142" data-original="#F7E142" class="active-path" style="fill:#04458F" data-old_color="#f7e142"/><path d="m96.29 29.13v81.18c0 3.43-2.68 6.2-6 6.2h-65.26c-3.31 0-6-2.77-6-6.2v-81.18c0-3.42 2.69-6.2 6-6.2h65.26c3.32 0 6 2.78 6 6.2z" fill="#f7e142" data-original="#F7E142" class="active-path" style="fill:#04458F" data-old_color="#f7e142"/><path d="m25.66 30.6h64v78.92h-64z" fill="#f7f7f9" data-original="#F7F7F9" class=""/><g><path d="m56.81 85.7c0 .55-.45 1-1 1h-23.34c-.55 0-1-.45-1-1s.45-1 1-1h23.34c.55 0 1 .45 1 1z" fill="#405463" data-original="#405463" class=""/></g><g><path d="m72.97 91.7c0 .56-.45 1-1 1h-11.5c-.55 0-1-.44-1-1 0-.55.45-1 1-1h11.5c.55 0 1 .45 1 1z" fill="#405463" data-original="#405463" class=""/></g><g><path d="m72.97 97.71c0 .55-.45 1-1 1h-8.75c-.55 0-1-.45-1-1s.45-1 1-1h8.75c.55 0 1 .45 1 1z" fill="#405463" data-original="#405463" class=""/></g><g><path d="m71.91 37.66c0 .55-.44 1-1 1h-26.5c-.55 0-1-.45-1-1s.45-1 1-1h26.5c.56 0 1 .45 1 1z" fill="#405463" data-original="#405463" class=""/></g><path d="m80.8 30.6v4.52h-46.28v-4.52h1.89v2.83h42.5v-2.83z" fill="#eaeaea" data-original="#EAEAEA" class=""/><path d="m89.66 88.47v1.55h-10.83c-1.09 0-2 .9-2 2v13.41h-1.29v-14.96c0-1.1.91-2 2-2z" fill="#e5e5e5" data-original="#E5E5E5" class=""/><path d="m89.66 90.02v2.54l-12.39 14.26h-51.62l.01-.69.01-.7h51.16z" fill="#d8d8d8" data-original="#D8D8D8"/><g><path d="m83.875 50.664h-51.403c-.552 0-1-.448-1-1s.448-1 1-1h51.403c.552 0 1 .448 1 1s-.448 1-1 1z" fill="#405463" data-original="#405463" class=""/></g><g><path d="m88.429 56.674h-55.957c-.552 0-1-.448-1-1s.448-1 1-1h55.957c.552 0 1 .448 1 1s-.448 1-1 1z" fill="#405463" data-original="#405463" class=""/></g><g><path d="m89.66 62.684h-57.188c-.552 0-1-.448-1-1s.448-1 1-1h57.188c.552 0 1 .448 1 1s-.448 1-1 1z" fill="#405463" data-original="#405463" class=""/></g><g><path d="m88.429 68.684h-55.957c-.552 0-1-.448-1-1s.448-1 1-1h55.957c.552 0 1 .448 1 1s-.448 1-1 1z" fill="#405463" data-original="#405463" class=""/></g><g><path d="m84.25 74.694h-51.778c-.552 0-1-.448-1-1s.448-1 1-1h51.778c.552 0 1 .448 1 1s-.448 1-1 1z" fill="#405463" data-original="#405463" class=""/></g><g><path d="m76.768 80.694h-44.403c-.493 0-.893-.448-.893-1s.4-1 .893-1h44.403c.493 0 .893.448.893 1s-.4 1-.893 1z" fill="#405463" data-original="#405463" class=""/></g><g><path d="m67.161 44.664h-30.749c-.552 0-1-.448-1-1s.448-1 1-1h30.749c.552 0 1 .448 1 1s-.448 1-1 1z" fill="#405463" data-original="#405463" class=""/></g><g><path d="m108.15 95.97-1.65 1.65c-1.09 1.09-2.86 1.09-3.95 0l-18.87-18.87-.75-.82 5.71-5.46.64.68 18.87 18.87c1.09 1.09 1.09 2.86 0 3.95z" fill="#405463" data-original="#405463" class=""/></g><path d="m72.17 41.02c-11.39 0-20.62 9.23-20.62 20.62s9.23 20.62 20.62 20.62 20.63-9.23 20.63-20.62-9.24-20.62-20.63-20.62zm0 35.65c-8.3 0-15.03-6.73-15.03-15.03s6.73-15.03 15.03-15.03 15.03 6.73 15.03 15.03-6.73 15.03-15.03 15.03z" fill="#e5e5e5" data-original="#E5E5E5" class=""/><circle cx="72.17" cy="61.64" fill="#77e3fc" r="15.03" data-original="#77E3FC"/><path d="m78.653 48.096-12.903 27.118c1.949.924 4.12 1.456 6.42 1.456 8.301 0 15.03-6.729 15.03-15.03 0-5.976-3.497-11.122-8.547-13.544z" fill="#32caf8" data-original="#32CAF8" class=""/><g fill="#405463"><path d="m64.739 74.694h14.862c.986-.563 1.898-1.237 2.728-2h-20.318c.83.763 1.742 1.437 2.728 2z" data-original="#405463" class=""/><path d="m58.896 68.684h26.548c.34-.639.624-1.31.87-2h-28.288c.246.69.53 1.361.87 2z" data-original="#405463" class=""/><path d="m57.14 61.64c0 .352.029.698.053 1.044h29.955c.024-.346.053-.692.053-1.044 0-.323-.028-.638-.048-.956h-29.965c-.02.318-.048.633-.048.956z" data-original="#405463" class=""/><path d="m57.997 56.674h28.345c-.242-.69-.526-1.36-.861-2h-26.622c-.336.64-.62 1.31-.862 2z" data-original="#405463" class=""/><path d="m61.925 50.664h20.49c-.816-.762-1.715-1.433-2.685-2h-15.119c-.971.567-1.87 1.238-2.686 2z" data-original="#405463" class=""/><path d="m78.91 17.93v15.5h-42.5v-15.5h9.61c0-5.18 5.21-9.37 11.64-9.37 6.44 0 11.65 4.19 11.65 9.37z" data-original="#405463" class=""/></g><g fill="#f7f7f9"><circle cx="57.66" cy="16.56" r="4" data-original="#F7F7F9" class=""/><circle cx="44.41" cy="26.18" r="3" data-original="#F7F7F9" class=""/><circle cx="70.91" cy="26.18" r="3" data-original="#F7F7F9" class=""/></g></g></g></g> </svg>
