<svg id="Layer_1" enable-background="new 0 0 500 500" height="512" viewBox="0 0 500 500" width="512" xmlns="http://www.w3.org/2000/svg"><path d="m14.253 345.607 139.048 137.327c19.004 18.769 49.817 18.769 68.821 0l182.98-180.716 1.892-182.891c.139-13.463-10.947-24.413-24.579-24.275l-185.181 1.869-182.981 180.716c-19.004 18.769-19.004 49.2 0 67.97z" fill="#52c1ff"/><path d="m289.678 169.01c11.717-11.572 30.715-11.572 42.432 0s11.717 30.335 0 41.907-30.715 11.572-42.432 0c-11.718-11.572-11.718-30.335 0-41.907z" fill="#fff"/><path d="m299.32 296.528-96.284-95.695-128.831 128.043 96.284 95.694z" fill="#fff"/><g fill="#4c97e3"><path d="m324.881 199.372c-5.229 0-23.147 3.972-23.077-16.236.029-8.277 7.703-14.485 15.967-13.942.697.048 70.095 4.117 108.362-33.676 26.648-26.319 43.867-58.017 43.867-80.756 0-7.276-1.824-12.768-5.421-16.319-14.248-14.074-59.541-.827-98.823 37.97-7.16 7.07-13.332 15.747-18.345 25.79-3.7 7.41-12.709 10.42-20.12 6.722-7.412-3.7-10.421-12.708-6.722-20.12 6.488-12.997 14.598-24.348 24.106-33.737 22.805-22.522 49.059-39.264 73.926-47.139 28.211-8.931 52.027-5.677 67.059 9.17 9.382 9.263 14.34 22.288 14.34 37.663 0 30.821-20.227 69.944-52.786 102.101-39.07 38.586-99.422 42.509-122.333 42.509z"/><path d="m162.1 385.556-48.473-48.176c-5.876-5.84-5.905-15.338-.065-21.214 5.839-5.875 15.337-5.904 21.213-.065l48.473 48.176c5.876 5.84 5.802 15.237.065 21.214-4.98 5.187-12.98 6.853-21.213.065z"/><path d="m200.309 347.503-48.473-48.176c-5.876-5.84-5.905-15.338-.065-21.214 5.839-5.875 15.337-5.904 21.213-.065l48.473 48.176c5.876 5.84 5.802 15.237.065 21.214-4.979 5.187-12.979 6.854-21.213.065z"/><path d="m238.499 309.512-48.473-48.176c-5.876-5.84-5.905-15.338-.065-21.214 5.839-5.875 15.337-5.904 21.213-.065l48.473 48.176c5.876 5.84 5.802 15.237.065 21.214-4.979 5.187-12.979 6.854-21.213.065z"/></g></svg>